<svg xmlns="http://www.w3.org/2000/svg" version="1.1" xmlns:xlink="http://www.w3.org/1999/xlink" xmlns:svgjs="http://svgjs.com/svgjs" width="512" height="512" x="0" y="0" viewBox="0 0 48 48" style="enable-background:new 0 0 512 512" xml:space="preserve" class=""><g><linearGradient xmlns="http://www.w3.org/2000/svg" id="_Linear1" gradientTransform="matrix(38.509 -39.91 39.91 38.509 12.984 656.914)" gradientUnits="userSpaceOnUse" x1="0" x2="1" y1="0" y2="0"><stop offset="0" stop-color="#0056e0"></stop><stop offset=".01" stop-color="#0056e0"></stop><stop offset="1" stop-color="#00e5b8"></stop></linearGradient><g xmlns="http://www.w3.org/2000/svg" transform="translate(0 -477)"><g transform="translate(0 -135)"><g id="ngicon"><path d="m44.5 641c0-1.933-1.567-3.5-3.5-3.5h-14c-.828 0-1.5.672-1.5 1.5v14c0 1.933 1.567 3.5 3.5 3.5h12c1.933 0 3.5-1.567 3.5-3.5zm-22-2c0-.828-.672-1.5-1.5-1.5h-14c-1.933 0-3.5 1.567-3.5 3.5v12c0 1.933 1.567 3.5 3.5 3.5h12c1.933 0 3.5-1.567 3.5-3.5zm0-20c0-1.933-1.567-3.5-3.5-3.5h-12c-1.933 0-3.5 1.567-3.5 3.5v12c0 1.933 1.567 3.5 3.5 3.5h14c.828 0 1.5-.672 1.5-1.5zm22 0c0-1.933-1.567-3.5-3.5-3.5h-12c-1.933 0-3.5 1.567-3.5 3.5v14c0 .828.672 1.5 1.5 1.5h14c1.933 0 3.5-1.567 3.5-3.5z" fill="url(#_Linear1)" data-original="url(#_Linear1)"></path></g></g></g></g></svg>