<svg xmlns="http://www.w3.org/2000/svg" version="1.1" xmlns:xlink="http://www.w3.org/1999/xlink" xmlns:svgjs="http://svgjs.com/svgjs" width="512" height="512" x="0" y="0" viewBox="0 0 96 96" style="enable-background:new 0 0 512 512" xml:space="preserve" class=""><g><g xmlns="http://www.w3.org/2000/svg" id="Computer_dekstop" data-name="Computer dekstop"><rect fill="#354174" height="41.12" rx="2.3" width="56.68" y="14.83" data-original="#354174" class=""></rect><path d="m5.38 18.91a1.3 1.3 0 0 0 -1.29 1.3v20.79a1.3 1.3 0 0 0 1.29 1.3h9.29a7 7 0 0 0 5-2.06l16.22-16.3a3 3 0 0 0 -2.08-5z" fill="#3569ab" data-original="#3569ab"></path><path d="m52.6 20.21a1.31 1.31 0 0 0 -1.3-1.3h-1a7.91 7.91 0 0 0 -5.59 2.32l-16.9 16.9a2.42 2.42 0 0 0 1.71 4.13h11.65a8.58 8.58 0 0 0 6.07-2.52l3.26-3.27a7.11 7.11 0 0 0 2.1-5z" fill="#3569ab" data-original="#3569ab"></path><path d="m49.93 42.26h1.37a1.31 1.31 0 0 0 1.3-1.26v-1.41a.75.75 0 0 0 -1.28-.53l-1.92 1.94a.75.75 0 0 0 .53 1.26z" fill="#3569ab" data-original="#3569ab"></path><path d="m4 29.73a1 1 0 0 1 -1-1v-9.8a1 1 0 0 1 1-1h3.6a1 1 0 0 1 0 2.05h-2.6v8.77a1 1 0 0 1 -1 .98z" fill="#ffffff" data-original="#ffffff"></path><path d="m14.89 19.94h-2.53a1 1 0 0 1 0-2.05h2.53a1 1 0 0 1 0 2.05z" fill="#ffffff" data-original="#ffffff"></path><path d="m66.18 38.35h26.2v46.2h-26.2z" fill="#354174" data-original="#354174" class=""></path><path d="m66.18 75.21h26.2v9.34h-26.2z" fill="#352d65" data-original="#352d65"></path><path d="m71.3 42.26h16c1.21 0 2.19.65 2.19 1.45v17.22c0 .8-1 1.45-2.19 1.45h-16c-1.21 0-2.19-.65-2.19-1.45v-17.22c0-.8.98-1.45 2.19-1.45z" fill="#3564a6" data-original="#3564a6"></path><path d="m96 28.37v59.05h-3.63v-60.17a23 23 0 0 0 -2.2-9.81l-.85-1.75a6.69 6.69 0 0 0 -6.07-3.84h-8a6.73 6.73 0 0 0 -6.07 3.84l-.84 1.77a22.93 22.93 0 0 0 -2.19 9.77v60.19h-3.6v-59.07a27.9 27.9 0 0 1 2.68-11.91l1-2.15a10 10 0 0 1 9-5.71h8a10 10 0 0 1 9 5.7l1 2.15a27.82 27.82 0 0 1 2.77 11.94z" fill="#b8b9ba" data-original="#b8b9ba" class=""></path><path d="m66.36 24.38a25.85 25.85 0 0 1 2.85-8.69 6.73 6.73 0 0 1 6.07-3.84h8a6.69 6.69 0 0 1 6.07 3.84 25 25 0 0 1 2.87 8.69h3.48a31.11 31.11 0 0 0 -3.42-10.1 10 10 0 0 0 -9-5.7h-8a10 10 0 0 0 -9 5.71 31 31 0 0 0 -3.4 10.09z" fill="#e6e7e8" data-original="#e6e7e8"></path><path d="m92.37 75.45h3.63v11.97h-3.63z" fill="#919191" data-original="#919191"></path><path d="m62.55 75.45h3.63v11.97h-3.63z" fill="#919191" data-original="#919191"></path><path d="m88.6 68.27c0 9.48 0 8.81-.06 9.19a2.62 2.62 0 0 1 -2.54 2.13h-13.41a2.64 2.64 0 0 1 -2.59-2.59c0-9.48 0-8.8.05-9.19a2.63 2.63 0 0 1 2.58-2.12h13.37a2.64 2.64 0 0 1 2.6 2.58z" fill="#3a86ff" data-original="#3a86ff"></path><path d="m88.6 69.8h-18.6a10.12 10.12 0 0 1 .05-2h18.49a10 10 0 0 1 .06 2z" fill="#1c4fd7" data-original="#1c4fd7" class=""></path><path d="m69.96 71.59h18.64v2.04h-18.64z" fill="#1c4fd7" data-original="#1c4fd7" class=""></path><path d="m88.6 75.42a9.52 9.52 0 0 1 -.06 2h-18.54a10.56 10.56 0 0 1 -.05-2z" fill="#1c4fd7" data-original="#1c4fd7" class=""></path><path d="m79.27 43.56a8.55 8.55 0 1 0 8.56 8.55 8.55 8.55 0 0 0 -8.56-8.55zm0 13.27a4.72 4.72 0 1 1 4.73-4.72 4.72 4.72 0 0 1 -4.73 4.72z" fill="#3a86ff" data-original="#3a86ff"></path><path d="m56.68 46.33v7.32a2.31 2.31 0 0 1 -2.3 2.3h-52.08a2.31 2.31 0 0 1 -2.3-2.3v-7.32z" fill="#c3c3c4" data-original="#c3c3c4"></path><path d="m48.34 46.33v7.32c0 1.26-.73 2.3-1.62 2.3h-36.72c-.89 0-1.62-1-1.62-2.3v-7.32z" fill="#e6e7e8" data-original="#e6e7e8"></path><path d="m51.53 53.13h-3.19a1 1 0 1 1 0-2h3.19a1 1 0 0 1 0 2z" fill="#ff4b6e" data-original="#ff4b6e"></path><path d="m44.81 53.13h-.81a1 1 0 1 1 0-2h.77a1 1 0 0 1 0 2z" fill="#302d3d" data-original="#302d3d"></path><path d="m83.7 22.09h-8.85l1.36-2.18a2.41 2.41 0 0 1 2-1.13h2.09a2.41 2.41 0 0 1 2 1.13z" fill="#354174" data-original="#354174" class=""></path><path d="m23.06 55.94h10.55v5.5h-10.55z" fill="#c3c3c4" data-original="#c3c3c4"></path><rect fill="#e6e7e8" height="3.85" rx="1.89" width="19.57" x="18.55" y="61.44" data-original="#e6e7e8"></rect><path d="m56.64 80.45.63 3.34a3 3 0 0 1 -2.92 3.64h-48.88a3 3 0 0 1 -2.93-3.64l.73-3.34z" fill="#354174" data-original="#354174" class=""></path><path d="m53.72 84.09h-47.52a3 3 0 0 1 -2.93-3.64l2-9.08a3 3 0 0 1 2.93-2.37h43.52a3 3 0 0 1 2.93 2.35l2 9.08a3 3 0 0 1 -2.93 3.66z" fill="#3a86ff" data-original="#3a86ff"></path><path d="m53.72 84.08h-9.15a3 3 0 0 0 2.93-3.63l-2-9.07a3 3 0 0 0 -2.92-2.38h9.14a3 3 0 0 1 2.93 2.36l2 9.07a3 3 0 0 1 -2.93 3.65z" fill="#1c4fd7" data-original="#1c4fd7" class=""></path><path d="m28.11 78.4h-18a2.12 2.12 0 0 1 -2.11-2.58l.47-2.13a2.14 2.14 0 0 1 2.11-1.69h17.06a2.13 2.13 0 0 1 2.07 1.67l.47 2.13a2.12 2.12 0 0 1 -2.07 2.6z" fill="#53c2ff" data-original="#53c2ff"></path><g fill="#fff"><path d="m10.84 73.63h-.84a1 1 0 0 1 0-2h.83a1 1 0 1 1 0 2z" fill="#ffffff" data-original="#ffffff"></path><path d="m15.18 73.63h-.83a1 1 0 0 1 0-2h.83a1 1 0 1 1 0 2z" fill="#ffffff" data-original="#ffffff"></path><path d="m19.52 73.63h-.83a1 1 0 0 1 0-2h.83a1 1 0 1 1 0 2z" fill="#ffffff" data-original="#ffffff"></path><path d="m23.86 73.63h-.86a1 1 0 0 1 0-2h.83a1 1 0 0 1 0 2z" fill="#ffffff" data-original="#ffffff"></path><path d="m28.2 73.63h-.83a1 1 0 0 1 0-2h.83a1 1 0 1 1 0 2z" fill="#ffffff" data-original="#ffffff"></path><path d="m32.54 73.63h-.83a1 1 0 0 1 0-2h.83a1 1 0 1 1 0 2z" fill="#ffffff" data-original="#ffffff"></path><path d="m36.88 73.63h-.83a1 1 0 0 1 0-2h.83a1 1 0 0 1 0 2z" fill="#ffffff" data-original="#ffffff"></path><path d="m41.22 73.63h-.83a1 1 0 0 1 0-2h.83a1 1 0 1 1 0 2z" fill="#ffffff" data-original="#ffffff"></path><path d="m45.56 73.63h-.83a1 1 0 0 1 0-2h.83a1 1 0 1 1 0 2z" fill="#ffffff" data-original="#ffffff"></path><path d="m49.9 73.63h-.82a1 1 0 1 1 0-2h.82a1 1 0 1 1 0 2z" fill="#ffffff" data-original="#ffffff"></path><path d="m8.11 77.72h-.64a1 1 0 0 1 0-2h.64a1 1 0 1 1 0 2z" fill="#ffffff" data-original="#ffffff"></path><path d="m12.14 77.72h-.64a1 1 0 0 1 0-2h.64a1 1 0 1 1 0 2z" fill="#ffffff" data-original="#ffffff"></path><path d="m16.17 77.72h-.64a1 1 0 0 1 0-2h.64a1 1 0 1 1 0 2z" fill="#ffffff" data-original="#ffffff"></path><path d="m20.2 77.72h-.64a1 1 0 0 1 0-2h.64a1 1 0 1 1 0 2z" fill="#ffffff" data-original="#ffffff"></path><path d="m24.23 77.72h-.64a1 1 0 0 1 0-2h.64a1 1 0 1 1 0 2z" fill="#ffffff" data-original="#ffffff"></path><path d="m28.26 77.72h-.64a1 1 0 0 1 0-2h.64a1 1 0 1 1 0 2z" fill="#ffffff" data-original="#ffffff"></path><path d="m32.29 77.72h-.64a1 1 0 0 1 0-2h.64a1 1 0 1 1 0 2z" fill="#ffffff" data-original="#ffffff"></path><path d="m36.32 77.72h-.64a1 1 0 0 1 0-2h.64a1 1 0 1 1 0 2z" fill="#ffffff" data-original="#ffffff"></path><path d="m40.36 77.72h-.65a1 1 0 0 1 0-2h.65a1 1 0 1 1 0 2z" fill="#ffffff" data-original="#ffffff"></path><path d="m44.39 77.72h-.64a1 1 0 1 1 0-2h.64a1 1 0 0 1 0 2z" fill="#ffffff" data-original="#ffffff"></path><path d="m48.42 77.72h-.64a1 1 0 1 1 0-2h.64a1 1 0 0 1 0 2z" fill="#ffffff" data-original="#ffffff"></path><path d="m52.45 77.72h-.64a1 1 0 0 1 0-2h.64a1 1 0 0 1 0 2z" fill="#ffffff" data-original="#ffffff"></path><path d="m8.21 81.52h-.64a1 1 0 0 1 0-2h.64a1 1 0 0 1 0 2z" fill="#ffffff" data-original="#ffffff"></path><path d="m12.62 81.52h-.62a1 1 0 0 1 0-2h.64a1 1 0 0 1 0 2z" fill="#ffffff" data-original="#ffffff"></path><path d="m17 81.52h-.6a1 1 0 0 1 0-2h.6a1 1 0 1 1 0 2z" fill="#ffffff" data-original="#ffffff"></path><path d="m21.45 81.52h-.64a1 1 0 0 1 0-2h.64a1 1 0 0 1 0 2z" fill="#ffffff" data-original="#ffffff"></path><path d="m25.86 81.52h-.64a1 1 0 0 1 0-2h.64a1 1 0 0 1 0 2z" fill="#ffffff" data-original="#ffffff"></path><path d="m30.28 81.52h-.64a1 1 0 0 1 0-2h.64a1 1 0 0 1 0 2z" fill="#ffffff" data-original="#ffffff"></path><path d="m34.69 81.52h-.64a1 1 0 0 1 0-2h.64a1 1 0 0 1 0 2z" fill="#ffffff" data-original="#ffffff"></path><path d="m39.11 81.52h-.64a1 1 0 0 1 0-2h.64a1 1 0 0 1 0 2z" fill="#ffffff" data-original="#ffffff"></path><path d="m43.52 81.52h-.64a1 1 0 0 1 0-2h.64a1 1 0 0 1 0 2z" fill="#ffffff" data-original="#ffffff"></path><path d="m47.93 81.52h-.63a1 1 0 1 1 0-2h.63a1 1 0 1 1 0 2z" fill="#ffffff" data-original="#ffffff"></path><path d="m52.35 81.52h-.64a1 1 0 0 1 0-2h.64a1 1 0 0 1 0 2z" fill="#ffffff" data-original="#ffffff"></path></g><path d="m92.37 38.35h-26.19c0-11.06-.2-12.84.59-16.26h25c.81 3.45.6 5.02.6 16.26z" fill="#3a86ff" data-original="#3a86ff"></path><rect fill="#62aeff" height="8.01" rx="1.85" width="19.15" x="69.7" y="26.21" data-original="#62aeff"></rect></g></g></svg>