<svg xmlns="http://www.w3.org/2000/svg" version="1.1" xmlns:xlink="http://www.w3.org/1999/xlink" xmlns:svgjs="http://svgjs.com/svgjs" width="512" height="512" x="0" y="0" viewBox="0 0 64 64" style="enable-background:new 0 0 512 512" xml:space="preserve" class=""><g><g xmlns="http://www.w3.org/2000/svg" id="Flat"><g id="Color_copy" data-name="Color copy"><path d="m30 3h31v58h-31z" fill="#d0d8da" data-original="#d0d8da" class=""></path><path d="m61 19v7h-31v-23h9v5a10.994 10.994 0 0 0 11 11z" fill="#93999a" data-original="#93999a" class=""></path><rect fill="#57b7eb" height="8" rx="2" width="4" x="53" y="31" data-original="#57b7eb"></rect><rect fill="#57b7eb" height="8" rx="2" width="4" x="53" y="10" data-original="#57b7eb"></rect><path d="m30 26h31v2h-31z" fill="#656b76" data-original="#656b76" class=""></path><path d="m61 41v20h-31v-33h14v1a12 12 0 0 0 12 12z" fill="#93999a" data-original="#93999a" class=""></path><path d="m57 37a2 2 0 0 1 -4 0v-4a2.006 2.006 0 0 1 2-2v4a2.006 2.006 0 0 0 2 2z" fill="#4891d3" data-original="#4891d3"></path><path d="m57 16a2 2 0 0 1 -4 0v-4a2.006 2.006 0 0 1 2-2v4a2.006 2.006 0 0 0 2 2z" fill="#4891d3" data-original="#4891d3"></path><path d="m3 27h36v34h-36z" fill="#e9f1f2" data-original="#e9f1f2" class=""></path><path d="m39 54v7h-36v-34h8v3a24.006 24.006 0 0 0 24 24z" fill="#d0d8da" data-original="#d0d8da" class=""></path><circle cx="21" cy="44" fill="#f9e109" r="12" data-original="#f9e109" class=""></circle><path d="m28.75 53.17a12.007 12.007 0 0 1 -16.92-16.92 24.014 24.014 0 0 0 16.92 16.92z" fill="#fcbc04" data-original="#fcbc04" class=""></path><path d="m3 19h36v8h-36z" fill="#e9f1f2" data-original="#e9f1f2" class=""></path><path d="m39 23v4h-36v-8h17.35a5.981 5.981 0 0 0 5.65 4z" fill="#d0d8da" data-original="#d0d8da" class=""></path><path d="m3 19h14v8h-14z" fill="#84d2f4" data-original="#84d2f4"></path><circle cx="21" cy="44" fill="#57b7eb" r="8" data-original="#57b7eb"></circle><path d="m24.11 51.38a8.018 8.018 0 0 1 -10.49-10.49 23.955 23.955 0 0 0 10.49 10.49z" fill="#4891d3" data-original="#4891d3"></path><path d="m24.11 51.38a8.018 8.018 0 0 1 -10.49-10.49 23.955 23.955 0 0 0 10.49 10.49z" fill="#4891d3" data-original="#4891d3"></path><path d="m3 55h8v6h-8z" fill="#fcbc04" data-original="#fcbc04" class=""></path><path d="m17 27h-14v-8h5z" fill="#57b7eb" data-original="#57b7eb"></path><path d="m28.93 45.1a8.04 8.04 0 0 1 -1.72 3.94l-11.25-11.25a8.04 8.04 0 0 1 3.94-1.72z" fill="#84d2f4" data-original="#84d2f4"></path><path d="m24.89 50.98a7.41 7.41 0 0 1 -2.02.8l-9.65-9.65a7.41 7.41 0 0 1 .8-2.02z" fill="#84d2f4" data-original="#84d2f4"></path><g fill="#57b7eb"><path d="m13.63 40.9a23.515 23.515 0 0 0 3.81 5.45l-4.22-4.22a7.1 7.1 0 0 1 .41-1.23z" fill="#57b7eb" data-original="#57b7eb"></path><path d="m24.1 51.37a7.1 7.1 0 0 1 -1.23.41l-4.22-4.22a23.515 23.515 0 0 0 5.45 3.81z" fill="#57b7eb" data-original="#57b7eb"></path><path d="m13.63 40.9a23.515 23.515 0 0 0 3.81 5.45l-4.22-4.22a7.1 7.1 0 0 1 .41-1.23z" fill="#57b7eb" data-original="#57b7eb"></path><path d="m24.1 51.37a7.1 7.1 0 0 1 -1.23.41l-4.22-4.22a23.515 23.515 0 0 0 5.45 3.81z" fill="#57b7eb" data-original="#57b7eb"></path><circle cx="34" cy="23" r="1" fill="#57b7eb" data-original="#57b7eb"></circle><circle cx="30" cy="23" r="1" fill="#57b7eb" data-original="#57b7eb"></circle><circle cx="26" cy="23" r="1" fill="#57b7eb" data-original="#57b7eb"></circle></g><path d="m17 22h3a1 1 0 0 1 0 2h-3z" fill="#fcbc04" data-original="#fcbc04" class=""></path><path d="m35 32h-3a1 1 0 0 1 0-2h3a1 1 0 0 1 0 2z" fill="#57b7eb" data-original="#57b7eb"></path><path d="m10 32h-3a1 1 0 0 1 0-2h3a1 1 0 0 1 0 2z" fill="#4891d3" data-original="#4891d3"></path><path d="m35 23a1 1 0 0 1 -2 0z" fill="#4891d3" data-original="#4891d3"></path><path d="m31 23a1 1 0 0 1 -2 0z" fill="#4891d3" data-original="#4891d3"></path><path d="m27 23a1 1 0 0 1 -2 0 .277.277 0 0 1 .01-.09 5.361 5.361 0 0 0 .99.09z" fill="#4891d3" data-original="#4891d3"></path><path d="m39 45h18v16h-18z" fill="#e9f1f2" data-original="#e9f1f2" class=""></path><path d="m57 56v5h-18v-16h4v5a6 6 0 0 0 6 6z" fill="#d0d8da" data-original="#d0d8da" class=""></path><path d="m39 49h9a1 1 0 0 1 1 1v6a1 1 0 0 1 -1 1h-9a0 0 0 0 1 0 0v-8a0 0 0 0 1 0 0z" fill="#84d2f4" data-original="#84d2f4"></path><path d="m48 49h-1l-8 8h9a1 1 0 0 0 1-1v-6a1 1 0 0 0 -1-1z" fill="#57b7eb" data-original="#57b7eb"></path><path d="m49 56a1 1 0 0 1 -1 1h-9v-8h4v1a6 6 0 0 0 6 6z" fill="#57b7eb" data-original="#57b7eb"></path><path d="m49 56a1 1 0 0 1 -1 1h-9l4.53-4.53a6.006 6.006 0 0 0 5.47 3.53z" fill="#4891d3" data-original="#4891d3"></path><circle cx="53" cy="49" fill="#57b7eb" r="1" data-original="#57b7eb"></circle><circle cx="53" cy="53" fill="#57b7eb" r="1" data-original="#57b7eb"></circle><path d="m19 9a1 1 0 0 1 -.707-.293l-4-4a1 1 0 0 1 1.414-1.414l3.293 3.293 3.293-3.293a1 1 0 1 1 1.414 1.414l-4 4a1 1 0 0 1 -.707.293z" fill="#fcbc04" data-original="#fcbc04" class=""></path><path d="m5 7h20v12h-20z" fill="#f9e109" data-original="#f9e109" class=""></path><path d="m13 7h12v12h-12z" fill="#4891d3" data-original="#4891d3"></path><rect fill="#2d72bc" height="8" rx="2" width="8" x="15" y="9" data-original="#2d72bc"></rect><path d="m13 16v3h-8v-12h3v5a4 4 0 0 0 4 4z" fill="#fcbc04" data-original="#fcbc04" class=""></path><path d="m11 7h2v10h-2z" fill="#fcbc04" data-original="#fcbc04" class=""></path><path d="m15 7h2v12h-2z" fill="#84d2f4" data-original="#84d2f4"></path><path d="m21 7h2v12h-2z" fill="#84d2f4" data-original="#84d2f4"></path><path d="m13 15h12v2h-12z" fill="#84d2f4" data-original="#84d2f4"></path><path d="m13 9h12v2h-12z" fill="#84d2f4" data-original="#84d2f4"></path><circle cx="9" cy="11" fill="#57b7eb" r="1" data-original="#57b7eb"></circle><circle cx="9" cy="15" fill="#57b7eb" r="1" data-original="#57b7eb"></circle><path d="m9 16a1 1 0 0 0 .915-.6 3.987 3.987 0 0 1 -1.315-1.315 1 1 0 0 0 .4 1.915z" fill="#4891d3" data-original="#4891d3"></path></g></g></g></svg>