<svg xmlns="http://www.w3.org/2000/svg" version="1.1" xmlns:xlink="http://www.w3.org/1999/xlink" xmlns:svgjs="http://svgjs.com/svgjs" width="512" height="512" x="0" y="0" viewBox="0 0 512 512" style="enable-background:new 0 0 512 512" xml:space="preserve" class=""><g>
<polygon xmlns="http://www.w3.org/2000/svg" style="" points="512,451.2 0,451.2 72.533,299.733 439.467,299.733 " fill="#f3f3f3" data-original="#f3f3f3" class=""></polygon>
<path xmlns="http://www.w3.org/2000/svg" style="" d="M512,451.2L512,451.2H0l0,0c0,14.933,12.8,27.733,27.733,27.733h456.533  C499.2,478.933,512,466.133,512,451.2z" fill="#ced6e0" data-original="#ced6e0" class=""></path>
<g xmlns="http://www.w3.org/2000/svg">
	<polygon style="" points="151.467,321.067 153.6,310.4 130.133,310.4 126.933,321.067  " fill="#415a6b" data-original="#415a6b"></polygon>
    <polygon style="" points="394.667,321.067 419.2,321.067 414.933,310.4 390.4,310.4  " fill="#415a6b" data-original="#415a6b"></polygon>
    <polygon style="" points="400,337.067 425.6,337.067 420.267,325.333 395.733,325.333  " fill="#415a6b" data-original="#415a6b"></polygon>
    <polygon style="" points="217.6,321.067 218.667,310.4 195.2,310.4 193.067,321.067  " fill="#415a6b" data-original="#415a6b"></polygon>
    <polygon style="" points="251.733,321.067 251.733,310.4 228.267,310.4 227.2,321.067  " fill="#415a6b" data-original="#415a6b"></polygon>
    <polygon style="" points="184.533,321.067 186.667,310.4 163.2,310.4 160,321.067  " fill="#415a6b" data-original="#415a6b"></polygon>
    <polygon style="" points="297.6,359.467 298.667,373.333 326.4,373.333 324.267,359.467  " fill="#415a6b" data-original="#415a6b"></polygon>
    <polygon style="" points="371.2,359.467 374.4,373.333 402.133,373.333 397.867,359.467  " fill="#415a6b" data-original="#415a6b"></polygon>
    <polygon style="" points="121.6,310.4 97.067,310.4 92.8,321.067 117.333,321.067  " fill="#415a6b" data-original="#415a6b"></polygon>
    <polygon style="" points="104.533,359.467 77.867,359.467 71.467,373.333 99.2,373.333  " fill="#415a6b" data-original="#415a6b"></polygon>
    <polygon style="" points="150.4,359.467 147.2,373.333 289.067,373.333 288,359.467  " fill="#415a6b" data-original="#415a6b"></polygon>
    <polygon style="" points="109.867,341.333 84.267,341.333 78.933,355.2 105.6,355.2  " fill="#415a6b" data-original="#415a6b"></polygon>
    <polygon style="" points="284.8,321.067 283.733,310.4 260.267,310.4 260.267,321.067  " fill="#415a6b" data-original="#415a6b"></polygon>
    <polygon style="" points="114.133,359.467 109.867,373.333 137.6,373.333 140.8,359.467  " fill="#415a6b" data-original="#415a6b"></polygon>
    <polygon style="" points="181.333,337.067 183.467,325.333 158.933,325.333 155.733,337.067  " fill="#415a6b" data-original="#415a6b"></polygon>
    <polygon style="" points="406.4,355.2 433.067,355.2 427.733,341.333 402.133,341.333  " fill="#415a6b" data-original="#415a6b"></polygon>
    <polygon style="" points="412.8,373.333 440.533,373.333 434.133,359.467 407.467,359.467  " fill="#415a6b" data-original="#415a6b"></polygon>
    <polygon style="" points="225.067,341.333 225.067,355.2 250.667,355.2 251.733,341.333  " fill="#415a6b" data-original="#415a6b"></polygon>
    <polygon style="" points="189.867,341.333 188.8,355.2 214.4,355.2 216.533,341.333  " fill="#415a6b" data-original="#415a6b"></polygon>
    <polygon style="" points="154.667,341.333 151.467,355.2 178.133,355.2 180.267,341.333  " fill="#415a6b" data-original="#415a6b"></polygon>
    <polygon style="" points="321.067,337.067 318.933,325.333 294.4,325.333 295.467,337.067  " fill="#415a6b" data-original="#415a6b"></polygon>
    <polygon style="" points="356.267,337.067 353.067,325.333 328.533,325.333 330.667,337.067  " fill="#415a6b" data-original="#415a6b"></polygon>
    <polygon style="" points="285.867,337.067 284.8,325.333 260.267,325.333 260.267,337.067  " fill="#415a6b" data-original="#415a6b"></polygon>
    <polygon style="" points="251.733,337.067 251.733,325.333 227.2,325.333 226.133,337.067  " fill="#415a6b" data-original="#415a6b"></polygon>
    <polygon style="" points="216.533,337.067 217.6,325.333 193.067,325.333 190.933,337.067  " fill="#415a6b" data-original="#415a6b"></polygon>
    <polygon style="" points="145.067,341.333 119.467,341.333 115.2,355.2 141.867,355.2  " fill="#415a6b" data-original="#415a6b"></polygon>
    <polygon style="" points="260.267,341.333 261.333,355.2 286.933,355.2 286.933,341.333  " fill="#415a6b" data-original="#415a6b"></polygon>
    <polygon style="" points="364.8,337.067 390.4,337.067 387.2,325.333 361.6,325.333  " fill="#415a6b" data-original="#415a6b"></polygon>
    <polygon style="" points="370.133,355.2 396.8,355.2 392.533,341.333 366.933,341.333  " fill="#415a6b" data-original="#415a6b"></polygon>
    <polygon style="" points="385.067,321.067 381.867,310.4 358.4,310.4 360.533,321.067  " fill="#415a6b" data-original="#415a6b"></polygon>
    <polygon style="" points="349.867,310.4 352,321.067 294.4,321.067 293.333,310.4  " fill="#415a6b" data-original="#415a6b"></polygon>
    <polygon style="" points="295.467,341.333 297.6,355.2 323.2,355.2 322.133,341.333  " fill="#415a6b" data-original="#415a6b"></polygon>
    <polygon style="" points="331.733,342.4 337.067,373.333 364.8,373.333 357.333,342.4  " fill="#415a6b" data-original="#415a6b"></polygon>
    <polygon style="" points="150.4,325.333 91.733,325.333 86.4,337.067 147.2,337.067  " fill="#415a6b" data-original="#415a6b"></polygon>
</g>
<polygon xmlns="http://www.w3.org/2000/svg" style="" points="315.733,434.133 196.267,434.133 220.8,385.067 291.2,385.067 " fill="#ced6e0" data-original="#ced6e0" class=""></polygon>
<path xmlns="http://www.w3.org/2000/svg" style="" d="M72.533,55.467v244.267h366.933V55.467c0-11.733-9.6-22.4-22.4-22.4H94.933  C82.133,33.067,72.533,43.733,72.533,55.467z" fill="#415a6b" data-original="#415a6b"></path>
<rect xmlns="http://www.w3.org/2000/svg" x="94.933" y="55.467" style="" width="322.133" height="222.933" fill="#55c0eb" data-original="#55c0eb"></rect>
<g xmlns="http://www.w3.org/2000/svg">
</g>
<g xmlns="http://www.w3.org/2000/svg">
</g>
<g xmlns="http://www.w3.org/2000/svg">
</g>
<g xmlns="http://www.w3.org/2000/svg">
</g>
<g xmlns="http://www.w3.org/2000/svg">
</g>
<g xmlns="http://www.w3.org/2000/svg">
</g>
<g xmlns="http://www.w3.org/2000/svg">
</g>
<g xmlns="http://www.w3.org/2000/svg">
</g>
<g xmlns="http://www.w3.org/2000/svg">
</g>
<g xmlns="http://www.w3.org/2000/svg">
</g>
<g xmlns="http://www.w3.org/2000/svg">
</g>
<g xmlns="http://www.w3.org/2000/svg">
</g>
<g xmlns="http://www.w3.org/2000/svg">
</g>
<g xmlns="http://www.w3.org/2000/svg">
</g>
<g xmlns="http://www.w3.org/2000/svg">
</g>
</g></svg>