<svg xmlns="http://www.w3.org/2000/svg" version="1.1" xmlns:xlink="http://www.w3.org/1999/xlink" xmlns:svgjs="http://svgjs.com/svgjs" width="512" height="512" x="0" y="0" viewBox="0 0 512 512" style="enable-background:new 0 0 512 512" xml:space="preserve" class=""><g>
<g xmlns="http://www.w3.org/2000/svg">
	<g>
		<path d="M216,40c-5.52,0-10,4.48-10,10s4.48,10,10,10s10-4.48,10-10S221.52,40,216,40z" fill="#000000" data-original="#000000" class=""></path>
	</g>
</g>
<g xmlns="http://www.w3.org/2000/svg">
	<g>
		<path d="M96,172c-5.52,0-10,4.48-10,10s4.48,10,10,10s10-4.48,10-10S101.52,172,96,172z" fill="#000000" data-original="#000000" class=""></path>
	</g>
</g>
<g xmlns="http://www.w3.org/2000/svg">
	<g>
		<path d="M96,232c-5.52,0-10,4.48-10,10s4.48,10,10,10s10-4.48,10-10S101.52,232,96,232z" fill="#000000" data-original="#000000" class=""></path>
	</g>
</g>
<g xmlns="http://www.w3.org/2000/svg">
	<g>
		<path d="M96,292c-5.52,0-10,4.48-10,10c0,5.52,4.48,10,10,10s10-4.48,10-10C106,296.48,101.52,292,96,292z" fill="#000000" data-original="#000000" class=""></path>
	</g>
</g>
<g xmlns="http://www.w3.org/2000/svg">
	<g>
		<path d="M96,352c-5.52,0-10,4.48-10,10c0,5.52,4.48,10,10,10s10-4.48,10-10C106,356.48,101.52,352,96,352z" fill="#000000" data-original="#000000" class=""></path>
	</g>
</g>
<g xmlns="http://www.w3.org/2000/svg">
	<g>
		<path d="M96,412c-5.52,0-10,4.48-10,10c0,5.52,4.48,10,10,10s10-4.48,10-10C106,416.48,101.52,412,96,412z" fill="#000000" data-original="#000000" class=""></path>
	</g>
</g>
<g xmlns="http://www.w3.org/2000/svg">
	<g>
		<path d="M336,172H136c-5.522,0-10,4.478-10,10c0,5.522,4.478,10,10,10h200c5.522,0,10-4.478,10-10    C346,176.478,341.522,172,336,172z" fill="#000000" data-original="#000000" class=""></path>
	</g>
</g>
<g xmlns="http://www.w3.org/2000/svg">
	<g>
		<path d="M336,232H136c-5.522,0-10,4.478-10,10c0,5.522,4.478,10,10,10h200c5.522,0,10-4.478,10-10    C346,236.478,341.522,232,336,232z" fill="#000000" data-original="#000000" class=""></path>
	</g>
</g>
<g xmlns="http://www.w3.org/2000/svg">
	<g>
		<path d="M336,292H136c-5.522,0-10,4.478-10,10c0,5.522,4.478,10,10,10h200c5.522,0,10-4.478,10-10    C346,296.478,341.522,292,336,292z" fill="#000000" data-original="#000000" class=""></path>
	</g>
</g>
<g xmlns="http://www.w3.org/2000/svg">
	<g>
		<path d="M423.071,384.928c-3.906-3.904-10.236-3.904-14.142,0.001L376,417.857l-12.929-12.929c-3.906-3.904-10.236-3.904-14.143,0    c-3.905,3.905-3.905,10.237,0,14.143l20,20C370.882,441.023,373.44,442,376,442s5.118-0.977,7.071-2.929l40-40    C426.976,395.166,426.976,388.834,423.071,384.928z" fill="#000000" data-original="#000000" class=""></path>
	</g>
</g>
<g xmlns="http://www.w3.org/2000/svg">
	<g>
		<path d="M406,314.006V90c0-16.542-13.458-30-30-30h-71.72c-4.128-11.639-15.243-20-28.28-20h-11.005    C260.35,17.206,240.146,0,216,0s-44.35,17.206-48.995,40H156c-13.036,0-24.152,8.361-28.28,20H56c-16.542,0-30,13.458-30,30v392    c0,16.542,13.458,30,30,30h330c55.141,0,100-44.859,100-100C486,363.973,452.188,323.329,406,314.006z M146,70    c0-5.514,4.486-10,10-10h20c5.522,0,10-4.478,10-10c0-16.542,13.458-30,30-30s30,13.458,30,30c0,5.522,4.478,10,10,10h20    c5.514,0,10,4.486,10,10v10H146V70z M56,492c-5.514,0-10-4.486-10-10V90c0-5.514,4.486-10,10-10h70v10c0,5.522,4.478,10,10,10h160    c5.522,0,10-4.478,10-10V80h70c5.514,0,10,4.486,10,10v222c-31.627,0-61.135,14.86-79.993,40H136c-5.522,0-10,4.478-10,10    c0,5.522,4.478,9.9,10,9.9h158.332C288.855,384.429,286,398.096,286,412H136c-5.522,0-10,4.478-10,10c0,5.522,4.478,10,10,10    h152.006c4.963,24.585,18.797,45.661,37.9,60H56z M386,492c-40.853,0-75.034-30.565-79.51-71.089    c-0.325-2.97-0.49-5.968-0.49-8.911c0-15.904,4.65-31.256,13.449-44.405c0.004-0.005,0.007-0.011,0.01-0.016    c0.004-0.006,0.007-0.012,0.011-0.017C334.371,345.294,359.241,332,386,332c2.943,0,5.941,0.165,8.911,0.49    C435.439,336.97,466,371.15,466,412C466,456.112,430.112,492,386,492z" fill="#000000" data-original="#000000" class=""></path>
	</g>
</g>
<g xmlns="http://www.w3.org/2000/svg">
</g>
<g xmlns="http://www.w3.org/2000/svg">
</g>
<g xmlns="http://www.w3.org/2000/svg">
</g>
<g xmlns="http://www.w3.org/2000/svg">
</g>
<g xmlns="http://www.w3.org/2000/svg">
</g>
<g xmlns="http://www.w3.org/2000/svg">
</g>
<g xmlns="http://www.w3.org/2000/svg">
</g>
<g xmlns="http://www.w3.org/2000/svg">
</g>
<g xmlns="http://www.w3.org/2000/svg">
</g>
<g xmlns="http://www.w3.org/2000/svg">
</g>
<g xmlns="http://www.w3.org/2000/svg">
</g>
<g xmlns="http://www.w3.org/2000/svg">
</g>
<g xmlns="http://www.w3.org/2000/svg">
</g>
<g xmlns="http://www.w3.org/2000/svg">
</g>
<g xmlns="http://www.w3.org/2000/svg">
</g>
</g></svg>