<svg xmlns="http://www.w3.org/2000/svg" version="1.1" xmlns:xlink="http://www.w3.org/1999/xlink" xmlns:svgjs="http://svgjs.com/svgjs" width="512" height="512" x="0" y="0" viewBox="0 0 512 512" style="enable-background:new 0 0 512 512" xml:space="preserve" class=""><g>
<path xmlns="http://www.w3.org/2000/svg" style="" d="M361.931,0H150.069c-14.626,0-26.483,11.857-26.483,26.483v459.034  c0,14.626,11.857,26.483,26.483,26.483h211.862c14.626,0,26.483-11.857,26.483-26.483V26.483C388.414,11.857,376.557,0,361.931,0z   M220.69,35.31c0-4.875,3.953-8.828,8.828-8.828h52.966c4.875,0,8.828,3.953,8.828,8.828l0,0c0,4.875-3.953,8.828-8.828,8.828  h-52.966C224.642,44.138,220.69,40.185,220.69,35.31L220.69,35.31z M194.207,26.483c4.875,0,8.828,3.953,8.828,8.828  s-3.953,8.828-8.828,8.828s-8.828-3.953-8.828-8.828S189.332,26.483,194.207,26.483z M256,494.345  c-9.751,0-17.655-7.905-17.655-17.655c0-9.751,7.904-17.655,17.655-17.655c9.751,0,17.655,7.904,17.655,17.655  C273.655,486.44,265.751,494.345,256,494.345z M370.759,335.448v105.931H141.241V335.448V70.621h229.517V335.448z" fill="#707384" data-original="#707384"></path>
<path xmlns="http://www.w3.org/2000/svg" style="" d="M141.241,335.448h70.621c0-4.875,3.953-8.828,8.828-8.828s8.828,3.953,8.828,8.828h17.655  c0-4.875,3.953-8.828,8.828-8.828s8.828,3.953,8.828,8.828h17.655c0-4.875,3.953-8.828,8.828-8.828s8.828,3.953,8.828,8.828h70.621  V70.621H141.241V335.448z M300.138,114.759c0-4.875,3.953-8.828,8.828-8.828h35.31c4.875,0,8.828,3.953,8.828,8.828v35.31  c0,4.875-3.953,8.828-8.828,8.828h-35.31c-4.875,0-8.828-3.953-8.828-8.828V114.759z M300.138,185.379  c0-4.875,3.953-8.828,8.828-8.828h35.31c4.875,0,8.828,3.953,8.828,8.828v35.31c0,4.875-3.953,8.828-8.828,8.828h-35.31  c-4.875,0-8.828-3.953-8.828-8.828V185.379z M300.138,256c0-4.875,3.953-8.828,8.828-8.828h35.31c4.875,0,8.828,3.953,8.828,8.828  v35.31c0,4.875-3.953,8.828-8.828,8.828h-35.31c-4.875,0-8.828-3.953-8.828-8.828V256z M229.517,114.759  c0-4.875,3.953-8.828,8.828-8.828h35.31c4.875,0,8.828,3.953,8.828,8.828v35.31c0,4.875-3.953,8.828-8.828,8.828h-35.31  c-4.875,0-8.828-3.953-8.828-8.828V114.759z M229.517,185.379c0-4.875,3.953-8.828,8.828-8.828h35.31  c4.875,0,8.828,3.953,8.828,8.828v35.31c0,4.875-3.953,8.828-8.828,8.828h-35.31c-4.875,0-8.828-3.953-8.828-8.828V185.379z   M229.517,256c0-4.875,3.953-8.828,8.828-8.828h35.31c4.875,0,8.828,3.953,8.828,8.828v35.31c0,4.875-3.953,8.828-8.828,8.828  h-35.31c-4.875,0-8.828-3.953-8.828-8.828V256z M158.897,114.759c0-4.875,3.953-8.828,8.828-8.828h35.31  c4.875,0,8.828,3.953,8.828,8.828v35.31c0,4.875-3.953,8.828-8.828,8.828h-35.31c-4.875,0-8.828-3.953-8.828-8.828V114.759z   M158.897,185.379c0-4.875,3.953-8.828,8.828-8.828h35.31c4.875,0,8.828,3.953,8.828,8.828v35.31c0,4.875-3.953,8.828-8.828,8.828  h-35.31c-4.875,0-8.828-3.953-8.828-8.828V185.379z M158.897,256c0-4.875,3.953-8.828,8.828-8.828h35.31  c4.875,0,8.828,3.953,8.828,8.828v35.31c0,4.875-3.953,8.828-8.828,8.828h-35.31c-4.875,0-8.828-3.953-8.828-8.828V256z" fill="#63afdb" data-original="#63afdb"></path>
<path xmlns="http://www.w3.org/2000/svg" style="" d="M291.31,344.276c-4.875,0-8.828-3.953-8.828-8.828h-17.655c0,4.875-3.953,8.828-8.828,8.828  s-8.828-3.953-8.828-8.828h-17.655c0,4.875-3.953,8.828-8.828,8.828s-8.828-3.953-8.828-8.828h-70.621v105.931h229.517V335.448  h-70.621C300.138,340.323,296.185,344.276,291.31,344.276z M211.862,406.069c0,4.875-3.953,8.828-8.828,8.828h-35.31  c-4.875,0-8.828-3.953-8.828-8.828v-35.31c0-4.875,3.953-8.828,8.828-8.828h35.31c4.875,0,8.828,3.953,8.828,8.828V406.069z   M282.483,406.069c0,4.875-3.953,8.828-8.828,8.828h-35.31c-4.875,0-8.828-3.953-8.828-8.828v-35.31  c0-4.875,3.953-8.828,8.828-8.828h35.31c4.875,0,8.828,3.953,8.828,8.828V406.069z M308.966,361.931h35.31  c4.875,0,8.828,3.953,8.828,8.828v35.31c0,4.875-3.953,8.828-8.828,8.828h-35.31c-4.875,0-8.828-3.953-8.828-8.828v-35.31  C300.138,365.884,304.09,361.931,308.966,361.931z" fill="#468cbe" data-original="#468cbe"></path>
<g xmlns="http://www.w3.org/2000/svg">
	<path style="" d="M229.517,44.138h52.966c4.875,0,8.828-3.953,8.828-8.828l0,0c0-4.875-3.953-8.828-8.828-8.828   h-52.966c-4.875,0-8.828,3.953-8.828,8.828l0,0C220.69,40.185,224.642,44.138,229.517,44.138z" fill="#464655" data-original="#464655"></path>
    <circle style="" cx="194.207" cy="35.31" r="8.828" fill="#464655" data-original="#464655"></circle>
    <circle style="" cx="256" cy="476.69" r="17.655" fill="#464655" data-original="#464655"></circle>
</g>
<path xmlns="http://www.w3.org/2000/svg" style="" d="M273.655,361.931h-35.31c-4.875,0-8.828,3.953-8.828,8.828v35.31c0,4.875,3.953,8.828,8.828,8.828  h35.31c4.875,0,8.828-3.953,8.828-8.828v-35.31C282.483,365.884,278.53,361.931,273.655,361.931z M256,406.069  c-9.751,0-17.655-7.905-17.655-17.655c0-9.751,7.904-17.655,17.655-17.655c9.751,0,17.655,7.904,17.655,17.655  C273.655,398.164,265.751,406.069,256,406.069z" fill="#63afdb" data-original="#63afdb"></path>
<path xmlns="http://www.w3.org/2000/svg" style="" d="M300.138,406.069c0,4.875,3.953,8.828,8.828,8.828h35.31c4.875,0,8.828-3.953,8.828-8.828v-35.31  c0-4.875-3.953-8.828-8.828-8.828h-35.31c-4.875,0-8.828,3.953-8.828,8.828V406.069z" fill="#ff6469" data-original="#ff6469"></path>
<path xmlns="http://www.w3.org/2000/svg" style="" d="M203.034,361.931h-35.31c-4.875,0-8.828,3.953-8.828,8.828v35.31c0,4.875,3.953,8.828,8.828,8.828  h35.31c4.875,0,8.828-3.953,8.828-8.828v-35.31C211.862,365.884,207.91,361.931,203.034,361.931z" fill="#00dccd" data-original="#00dccd"></path>
<path xmlns="http://www.w3.org/2000/svg" style="" d="M238.345,300.138h35.31c4.875,0,8.828-3.953,8.828-8.828V256c0-4.875-3.953-8.828-8.828-8.828h-35.31  c-4.875,0-8.828,3.953-8.828,8.828v35.31C229.517,296.185,233.47,300.138,238.345,300.138z" fill="#ffdc69" data-original="#ffdc69"></path>
<path xmlns="http://www.w3.org/2000/svg" style="" d="M308.966,300.138h35.31c4.875,0,8.828-3.953,8.828-8.828V256c0-4.875-3.953-8.828-8.828-8.828h-35.31  c-4.875,0-8.828,3.953-8.828,8.828v35.31C300.138,296.185,304.09,300.138,308.966,300.138z M308.966,273.655  c0-4.875,3.953-8.828,8.828-8.828h17.655c4.875,0,8.828,3.953,8.828,8.828l0,0c0,4.875-3.953,8.828-8.828,8.828h-17.655  C312.918,282.483,308.966,278.53,308.966,273.655L308.966,273.655z" fill="#ffffff" data-original="#ffffff"></path>
<path xmlns="http://www.w3.org/2000/svg" style="" d="M167.724,300.138h35.31c4.875,0,8.828-3.953,8.828-8.828V256c0-4.875-3.953-8.828-8.828-8.828h-35.31  c-4.875,0-8.828,3.953-8.828,8.828v35.31C158.897,296.185,162.849,300.138,167.724,300.138z M167.724,273.655  c0-4.875,3.953-8.828,8.828-8.828h17.655c4.875,0,8.828,3.953,8.828,8.828l0,0c0,4.875-3.953,8.828-8.828,8.828h-17.655  C171.677,282.483,167.724,278.53,167.724,273.655L167.724,273.655z" fill="#468cbe" data-original="#468cbe"></path>
<path xmlns="http://www.w3.org/2000/svg" style="" d="M238.345,229.517h35.31c4.875,0,8.828-3.953,8.828-8.828v-35.31c0-4.875-3.953-8.828-8.828-8.828  h-35.31c-4.875,0-8.828,3.953-8.828,8.828v35.31C229.517,225.565,233.47,229.517,238.345,229.517z M238.345,203.034  c0-4.875,3.953-8.828,8.828-8.828h17.655c4.875,0,8.828,3.953,8.828,8.828l0,0c0,4.875-3.953,8.828-8.828,8.828h-17.655  C242.297,211.862,238.345,207.91,238.345,203.034L238.345,203.034z" fill="#464655" data-original="#464655"></path>
<path xmlns="http://www.w3.org/2000/svg" style="" d="M308.966,229.517h35.31c4.875,0,8.828-3.953,8.828-8.828v-35.31c0-4.875-3.953-8.828-8.828-8.828  h-35.31c-4.875,0-8.828,3.953-8.828,8.828v35.31C300.138,225.565,304.09,229.517,308.966,229.517z" fill="#ffa055" data-original="#ffa055"></path>
<path xmlns="http://www.w3.org/2000/svg" style="" d="M167.724,229.517h35.31c4.875,0,8.828-3.953,8.828-8.828v-35.31c0-4.875-3.953-8.828-8.828-8.828  h-35.31c-4.875,0-8.828,3.953-8.828,8.828v35.31C158.897,225.565,162.849,229.517,167.724,229.517z M185.379,185.379  c9.751,0,17.655,7.904,17.655,17.655c0,9.75-7.904,17.655-17.655,17.655c-9.751,0-17.655-7.905-17.655-17.655  C167.724,193.283,175.628,185.379,185.379,185.379z" fill="#a0d778" data-original="#a0d778"></path>
<path xmlns="http://www.w3.org/2000/svg" style="" d="M238.345,158.897h35.31c4.875,0,8.828-3.953,8.828-8.828v-35.31c0-4.875-3.953-8.828-8.828-8.828  h-35.31c-4.875,0-8.828,3.953-8.828,8.828v35.31C229.517,154.944,233.47,158.897,238.345,158.897z" fill="#ff6469" data-original="#ff6469"></path>
<path xmlns="http://www.w3.org/2000/svg" style="" d="M308.966,158.897h35.31c4.875,0,8.828-3.953,8.828-8.828v-35.31c0-4.875-3.953-8.828-8.828-8.828  h-35.31c-4.875,0-8.828,3.953-8.828,8.828v35.31C300.138,154.944,304.09,158.897,308.966,158.897z M326.621,114.759  c9.751,0,17.655,7.904,17.655,17.655c0,9.75-7.904,17.655-17.655,17.655c-9.751,0-17.655-7.905-17.655-17.655  C308.966,122.663,316.87,114.759,326.621,114.759z" fill="#00dccd" data-original="#00dccd"></path>
<g xmlns="http://www.w3.org/2000/svg">
	<path style="" d="M167.724,158.897h35.31c4.875,0,8.828-3.953,8.828-8.828v-35.31c0-4.875-3.953-8.828-8.828-8.828   h-35.31c-4.875,0-8.828,3.953-8.828,8.828v35.31C158.897,154.944,162.849,158.897,167.724,158.897z" fill="#ffdc69" data-original="#ffdc69"></path>
    <circle style="" cx="185.379" cy="203.034" r="17.655" fill="#ffdc69" data-original="#ffdc69"></circle>
    <circle style="" cx="256" cy="388.414" r="17.655" fill="#ffdc69" data-original="#ffdc69"></circle>
</g>
<circle xmlns="http://www.w3.org/2000/svg" style="" cx="326.621" cy="132.414" r="17.655" fill="#ff6469" data-original="#ff6469"></circle>
<path xmlns="http://www.w3.org/2000/svg" style="" d="M247.172,211.862h17.655c4.875,0,8.828-3.953,8.828-8.828l0,0c0-4.875-3.953-8.828-8.828-8.828  h-17.655c-4.875,0-8.828,3.953-8.828,8.828l0,0C238.345,207.91,242.297,211.862,247.172,211.862z" fill="#468cbe" data-original="#468cbe"></path>
<path xmlns="http://www.w3.org/2000/svg" style="" d="M317.793,282.483h17.655c4.875,0,8.828-3.953,8.828-8.828l0,0c0-4.875-3.953-8.828-8.828-8.828  h-17.655c-4.875,0-8.828,3.953-8.828,8.828l0,0C308.966,278.53,312.918,282.483,317.793,282.483z" fill="#ff6469" data-original="#ff6469"></path>
<path xmlns="http://www.w3.org/2000/svg" style="" d="M176.552,282.483h17.655c4.875,0,8.828-3.953,8.828-8.828l0,0c0-4.875-3.953-8.828-8.828-8.828  h-17.655c-4.875,0-8.828,3.953-8.828,8.828l0,0C167.724,278.53,171.677,282.483,176.552,282.483z" fill="#ffffff" data-original="#ffffff"></path>
<circle xmlns="http://www.w3.org/2000/svg" style="" cx="220.69" cy="335.448" r="8.828" fill="#464655" data-original="#464655"></circle>
<g xmlns="http://www.w3.org/2000/svg">
	<circle style="" cx="256" cy="335.448" r="8.828" fill="#ffffff" data-original="#ffffff"></circle>
    <circle style="" cx="291.31" cy="335.448" r="8.828" fill="#ffffff" data-original="#ffffff"></circle>
</g>
<g xmlns="http://www.w3.org/2000/svg">
</g>
<g xmlns="http://www.w3.org/2000/svg">
</g>
<g xmlns="http://www.w3.org/2000/svg">
</g>
<g xmlns="http://www.w3.org/2000/svg">
</g>
<g xmlns="http://www.w3.org/2000/svg">
</g>
<g xmlns="http://www.w3.org/2000/svg">
</g>
<g xmlns="http://www.w3.org/2000/svg">
</g>
<g xmlns="http://www.w3.org/2000/svg">
</g>
<g xmlns="http://www.w3.org/2000/svg">
</g>
<g xmlns="http://www.w3.org/2000/svg">
</g>
<g xmlns="http://www.w3.org/2000/svg">
</g>
<g xmlns="http://www.w3.org/2000/svg">
</g>
<g xmlns="http://www.w3.org/2000/svg">
</g>
<g xmlns="http://www.w3.org/2000/svg">
</g>
<g xmlns="http://www.w3.org/2000/svg">
</g>
</g></svg>