<svg xmlns="http://www.w3.org/2000/svg" version="1.1" xmlns:xlink="http://www.w3.org/1999/xlink" xmlns:svgjs="http://svgjs.com/svgjs" width="512" height="512" x="0" y="0" viewBox="0 0 50 58" style="enable-background:new 0 0 512 512" xml:space="preserve" class=""><g><g xmlns="http://www.w3.org/2000/svg" id="Page-1" fill="none" fill-rule="evenodd"><g id="029---Printer" fill-rule="nonzero"><path id="Shape" d="m9 11 2 10-6-2v-6c.0032948-1.1032019.89679813-1.9967052 2-2z" fill="#2980ba" data-original="#2980ba"></path><path id="Shape" d="m45 13v6l-6 2 2-10h2c1.1032019.0032948 1.9967052.8967981 2 2z" fill="#2980ba" data-original="#2980ba"></path><path id="Shape" d="m41 1v20h-32v-20c0-.55228475.44771525-1 1-1h30c.5522847 0 1 .44771525 1 1z" fill="#ecf0f1" data-original="#ecf0f1" class=""></path><path id="Shape" d="m2 47c-1.10320187-.0032948-1.9967052-.8967981-2-2v-22c0-2.209139 1.790861-4 4-4h42c2.209139 0 4 1.790861 4 4v22c-.0032948 1.1032019-.8967981 1.9967052-2 2z" fill="#3b97d3" data-original="#3b97d3"></path><path id="Shape" d="m6 26h-2c-.55228475 0-1-.4477153-1-1s.44771525-1 1-1h2c.55228475 0 1 .4477153 1 1s-.44771525 1-1 1z" fill="#65ddb9" data-original="#65ddb9"></path><path id="Shape" d="m12 26h-2c-.55228475 0-1-.4477153-1-1s.44771525-1 1-1h2c.5522847 0 1 .4477153 1 1s-.4477153 1-1 1z" fill="#f3d55b" data-original="#f3d55b"></path><path id="Shape" d="m46 26h-29c-.5522847 0-1-.4477153-1-1s.4477153-1 1-1h29c.5522847 0 1 .4477153 1 1s-.4477153 1-1 1z" fill="#ffffff" data-original="#ffffff"></path><path id="Shape" d="m46 35v12h-3.32l-1.68-8h-32l-1.68 8h-3.32v-12c.0032948-1.1032019.89679813-1.9967052 2-2h38c1.1032019.0032948 1.9967052.8967981 2 2z" fill="#285680" data-original="#285680"></path><path id="Shape" d="m42.54 58h-35.08c-.60104339-.0022602-1.16920264-.2747091-1.54726919-.7419606s-.52594983-1.0797577-.40273081-1.6680394l1.81-8.59 1.68-8h32l1.68 8 1.81 8.59c.123219.5882817-.0246643 1.2007879-.4027308 1.6680394-.3780666.4672515-.9462258.7397004-1.5472692.7419606z" fill="#ecf0f1" data-original="#ecf0f1" class=""></path><path id="Shape" d="m42 40h-34c-.55228475 0-1-.4477153-1-1s.44771525-1 1-1h34c.5522847 0 1 .4477153 1 1s-.4477153 1-1 1z" fill="#bdc3c7" data-original="#bdc3c7"></path><path id="Shape" d="m20.54 52.54c-1.6008875 1.5968384-4.0742064 1.9205523-6.032127.7894994s-2.9130937-3.4353405-2.3295522-5.6198801c.5835415-2.1845395 2.5605473-3.7055737 4.8216792-3.7096193v5z" fill="#955ba5" data-original="#955ba5"></path><path id="Shape" d="m22 49c-.0000388 1.3265125-.5249046 2.5991323-1.46 3.54l-3.54-3.54v-5c2.7614237 0 5 2.2385763 5 5z" fill="#4fba6f" data-original="#4fba6f"></path><g fill="#bdc3c7"><path id="Shape" d="m28 54h-2c-.5522847 0-1-.4477153-1-1s.4477153-1 1-1h2c.5522847 0 1 .4477153 1 1s-.4477153 1-1 1z" fill="#bdc3c7" data-original="#bdc3c7"></path><path id="Shape" d="m39 54h-7c-.5522847 0-1-.4477153-1-1s.4477153-1 1-1h7c.5522847 0 1 .4477153 1 1s-.4477153 1-1 1z" fill="#bdc3c7" data-original="#bdc3c7"></path><path id="Shape" d="m35 50h-9c-.5522847 0-1-.4477153-1-1s.4477153-1 1-1h9c.5522847 0 1 .4477153 1 1s-.4477153 1-1 1z" fill="#bdc3c7" data-original="#bdc3c7"></path><path id="Shape" d="m29 46h-3c-.5522847 0-1-.4477153-1-1s.4477153-1 1-1h3c.5522847 0 1 .4477153 1 1s-.4477153 1-1 1z" fill="#bdc3c7" data-original="#bdc3c7"></path><path id="Shape" d="m37 46h-4c-.5522847 0-1-.4477153-1-1s.4477153-1 1-1h4c.5522847 0 1 .4477153 1 1s-.4477153 1-1 1z" fill="#bdc3c7" data-original="#bdc3c7"></path></g></g></g></g></svg>