<svg xmlns="http://www.w3.org/2000/svg" version="1.1" xmlns:xlink="http://www.w3.org/1999/xlink" xmlns:svgjs="http://svgjs.com/svgjs" width="512" height="512" x="0" y="0" viewBox="0 0 512 512" style="enable-background:new 0 0 512 512" xml:space="preserve" class=""><g><rect xmlns="http://www.w3.org/2000/svg" fill="#2d4a60" height="469.333" rx="32" width="362.667" x="74.667" y="21.333" data-original="#2d4a60" class=""></rect><path xmlns="http://www.w3.org/2000/svg" d="m429.1 480.016-346.2-448.032a31.837 31.837 0 0 0 -8.23 21.349v405.334a32.035 32.035 0 0 0 32 32h298.663a31.891 31.891 0 0 0 23.767-10.651z" fill="#263f52" data-original="#263f52" class=""></path><circle xmlns="http://www.w3.org/2000/svg" cx="117.333" cy="64" fill="#8fa5a5" r="10.667" data-original="#8fa5a5" class=""></circle><path xmlns="http://www.w3.org/2000/svg" d="m106.779 62.89a10.409 10.409 0 0 0 -.112 1.11 10.638 10.638 0 0 0 9.09 10.507z" fill="#7b8c8c" data-original="#7b8c8c" class=""></path><circle xmlns="http://www.w3.org/2000/svg" cx="394.667" cy="64" fill="#8fa5a5" r="10.667" data-original="#8fa5a5" class=""></circle><circle xmlns="http://www.w3.org/2000/svg" cx="117.333" cy="448" fill="#7b8c8c" r="10.667" data-original="#7b8c8c" class=""></circle><circle xmlns="http://www.w3.org/2000/svg" cx="394.667" cy="448" fill="#8fa5a5" r="10.667" data-original="#8fa5a5" class=""></circle><path xmlns="http://www.w3.org/2000/svg" d="m396.243 437.493a10.649 10.649 0 1 0 8.978 11.618z" fill="#7b8c8c" data-original="#7b8c8c" class=""></path><circle xmlns="http://www.w3.org/2000/svg" cx="256" cy="330.667" fill="#8fa5a5" r="117.333" data-original="#8fa5a5" class=""></circle><path xmlns="http://www.w3.org/2000/svg" d="m358.208 388.27-132.181-171.058a117.339 117.339 0 1 0 132.181 171.058z" fill="#7b8c8c" data-original="#7b8c8c" class=""></path><circle xmlns="http://www.w3.org/2000/svg" cx="256" cy="330.667" fill="#eaeff0" r="32" data-original="#eaeff0"></circle><circle xmlns="http://www.w3.org/2000/svg" cx="256" cy="330.667" fill="#bac2c6" r="32" data-original="#bac2c6"></circle><circle xmlns="http://www.w3.org/2000/svg" cx="256" cy="128" fill="#8fa5a5" r="64" data-original="#8fa5a5" class=""></circle><circle xmlns="http://www.w3.org/2000/svg" cx="256" cy="128" fill="#eaeff0" r="21.333" data-original="#eaeff0"></circle></g></svg>