<svg xmlns="http://www.w3.org/2000/svg" version="1.1" xmlns:xlink="http://www.w3.org/1999/xlink" xmlns:svgjs="http://svgjs.com/svgjs" width="512" height="512" x="0" y="0" viewBox="0 0 512 512" style="enable-background:new 0 0 512 512" xml:space="preserve" class=""><g><g xmlns="http://www.w3.org/2000/svg"><g><g fill="#b5b1a4"><path d="m132.758 389.902-47.474 52.221c-2.221 2.443-5.369 3.836-8.67 3.836h-32.34c-5.086 0-7.757-6.036-4.335-9.8l42.051-46.257z" fill="#b5b1a4" data-original="#b5b1a4" class=""></path><path d="m379.242 389.902 47.474 52.221c2.221 2.443 5.369 3.836 8.67 3.836h32.34c5.086 0 7.757-6.036 4.335-9.8l-42.051-46.257z" fill="#b5b1a4" data-original="#b5b1a4" class=""></path></g><g fill="#8f8b81"><path d="m99.959 425.981 32.799-36.079h-50.768l-32.799 36.079z" fill="#8f8b81" data-original="#8f8b81" class=""></path><path d="m462.809 425.981-32.799-36.079h-50.768l32.799 36.079z" fill="#8f8b81" data-original="#8f8b81" class=""></path></g><g><path d="m497 408.968h-482c-8.284 0-15-6.716-15-15v-312.925c0-8.284 6.716-15 15-15h482c8.284 0 15 6.716 15 15v312.925c0 8.285-6.716 15-15 15z" fill="#706c64" data-original="#706c64"></path><path d="m497 408.968h-482c-8.284 0-15-6.716-15-15v-312.925c0-8.284 6.716-15 15-15h482c8.284 0 15 6.716 15 15v312.925c0 8.285-6.716 15-15 15z" fill="#706c64" data-original="#706c64"></path><path d="m512 81.041v312.93c0 8.28-6.72 15-15 15h-238.36c123.6-31.71 214.96-143.86 214.96-277.35 0-22.57-2.61-44.52-7.55-65.58h30.95c8.28 0 15 6.72 15 15z" fill="#595751" data-original="#595751"></path><path d="m512 361.808h-512v-280.765c0-8.284 6.716-15 15-15h482c8.284 0 15 6.716 15 15z" fill="#e8e4d8" data-original="#e8e4d8"></path><g><path d="m102.4 361.808h-102.4v-280.765c0-8.284 6.716-15 15-15h87.4z" fill="#fe255f" data-original="#fe255f"></path><path d="m102.4 66.041h102.4v295.77h-102.4z" fill="#ffe059" data-original="#ffe059" class=""></path><path d="m204.8 66.043h102.4v295.765h-102.4z" fill="#29e088" data-original="#29e088" class=""></path><path d="m307.2 66.041h102.4v295.77h-102.4z" fill="#5cceff" data-original="#5cceff" class=""></path><path d="m512 361.808h-102.4v-295.765h87.4c8.284 0 15 6.716 15 15z" fill="#48acff" data-original="#48acff" class=""></path></g></g><path d="m355.544 157.638c-7.229-3.63-16.032-.711-19.662 6.52l-35.296 70.318-35.295-70.318c-2.485-4.951-7.551-8.077-13.091-8.077h-89.175c-8.089 0-14.647 6.558-14.647 14.647s6.558 14.647 14.647 14.647h29.94v81.751c0 8.09 6.558 14.647 14.647 14.647s14.647-6.557 14.647-14.647v-81.751h20.904l44.332 88.322c2.485 4.951 7.551 8.077 13.091 8.077s10.605-3.125 13.091-8.077l48.387-96.398c3.628-7.23.709-16.033-6.52-19.661z" fill="#ffffff" data-original="#ffffff" class=""></path></g><path d="m102.4 115.142h-23.015c-13.558 0-24.549-10.991-24.549-24.549 0-13.558 10.991-24.549 24.549-24.549h23.015z" fill="#fc709b" data-original="#fc709b"></path><path d="m102.4 66.041h102.4v49.1h-102.4z" fill="#fff370" data-original="#fff370"></path><path d="m291.56 90.591c0 13.559-10.991 24.55-24.55 24.55h-62.21v-49.1h62.21c13.558 0 24.55 10.991 24.55 24.55z" fill="#79ff79" data-original="#79ff79"></path><path d="m226.083 115.141h-39.665c-13.559 0-24.55-10.991-24.55-24.55 0-13.559 10.991-24.55 24.55-24.55h39.665c13.559 0 24.55 10.991 24.55 24.55 0 13.559-10.991 24.55-24.55 24.55z" fill="#c2ffc2" data-original="#c2ffc2"></path><path d="m204.8 115.141h-18.382c-13.559 0-24.55-10.991-24.55-24.55 0-13.559 10.991-24.55 24.55-24.55h18.382z" fill="#fff7c7" data-original="#fff7c7"></path><path d="m512 81.041v280.77h-102.4v-49.76c40.02-49.24 64-112.03 64-180.43 0-22.57-2.61-44.52-7.55-65.58h30.95c8.28 0 15 6.72 15 15z" fill="#229bff" data-original="#229bff" class=""></path><path d="m409.6 312.051v49.76h-52.03c19.36-14.35 36.85-31.08 52.03-49.76z" fill="#27b2ff" data-original="#27b2ff"></path><path d="m159.874 408.968h-111.339c-13.022 0-23.579-10.557-23.579-23.579 0-13.022 10.557-23.579 23.579-23.579h111.339c13.022 0 23.579 10.557 23.579 23.579-.001 13.023-10.557 23.579-23.579 23.579z" fill="#8f8b81" data-original="#8f8b81" class=""></path><path d="m108.491 361.811h-29.191c-13.022 0-23.579 10.557-23.579 23.579 0 13.022 10.557 23.579 23.579 23.579h29.192c13.022 0 23.579-10.557 23.579-23.579-.001-13.022-10.558-23.579-23.58-23.579z" fill="#b5b1a4" data-original="#b5b1a4" class=""></path></g></g></svg>